<svg width="24" height="24" viewBox="0 0 24 24" fill="none" xmlns="http://www.w3.org/2000/svg">
<path d="M9 22H15C20 22 22 20 22 15V9C22 4 20 2 15 2H9C4 2 2 4 2 9V15C2 20 4 22 9 22Z" stroke="#292D32" stroke-width="1.5" stroke-linecap="round" stroke-linejoin="round"/>
<path d="M16.2812 13.61C15.1512 14.74 13.5312 15.09 12.1012 14.64L9.51117 17.22C9.33117 17.41 8.96117 17.53 8.69117 17.49L7.49117 17.33C7.09117 17.28 6.73117 16.9 6.67117 16.51L6.51117 15.31C6.47117 15.05 6.60117 14.68 6.78117 14.49L9.36117 11.91C8.92117 10.48 9.26117 8.86001 10.3912 7.73001C12.0112 6.11001 14.6512 6.11001 16.2812 7.73001C17.9012 9.34001 17.9012 11.98 16.2812 13.61Z" stroke="#292D32" stroke-width="1.5" stroke-miterlimit="10" stroke-linecap="round" stroke-linejoin="round"/>
<path d="M10.4516 16.28L9.60156 15.42" stroke="#292D32" stroke-width="1.5" stroke-miterlimit="10" stroke-linecap="round" stroke-linejoin="round"/>
<path d="M13.3929 10.7H13.4019" stroke="#292D32" stroke-width="2" stroke-linecap="round" stroke-linejoin="round"/>
</svg>
